# xmcd
#
# Track frame offsets: 
#        150
#        11114
#        24789
#        40763
#        55679
#        67384
#        84537
#        96076
#        107202
#        127464
#        139023
#        159144
#        172667
#
# Disc length: 2486 seconds
#
# Revision: 3
# Processed by: cddbd v1.5.2PL0 Copyright (c) Steve Scherf et al.
# Submitted via: ExactAudioCopyFreeDBPlugin 1.0
#
DISCID=a509b40d
DTITLE=K C and The Sunshine Band - Do It Good and 4 [CDBBr 0192]
DYEAR=1974
DGENRE=Funk
TTITLE0=Do It Good
TTITLE1=Sound Your Funky Horn
TTITLE2=Baby I Want Your Loving
TTITLE3=Queen of Clubs
TTITLE4=Blow Your Whistle
TTITLE5=I'm A Pushover
TTITLE6=You Don't Know
TTITLE7=I Need A Little Lovin'
TTITLE8=All My Love
TTITLE9=I'm Gonna Do Something Good to You
TTITLE10=Why Don't We Get Together
TTITLE11=Queen of Clubs (Single Version)
TTITLE12=I'm A Pushover (Single Version)
EXTD=
EXTT0=
EXTT1=
EXTT2=
EXTT3=
EXTT4=
EXTT5=
EXTT6=
EXTT7=
EXTT8=
EXTT9=
EXTT10=
EXTT11=
EXTT12=
PLAYORDER=
